<svg height="512" viewBox="0 0 512 512" width="512" xmlns="http://www.w3.org/2000/svg"><path d="m176 160c-97.047 0-176 78.953-176 176s78.953 176 176 176 176-78.953 176-176-78.953-176-176-176zm0 304a128 128 0 1 1 128-128 128.144 128.144 0 0 1 -128 128z" fill="#efc465"/><path d="m267.982 424.916a127.758 127.758 0 0 1 -75.857 38.071 193.393 193.393 0 0 0 45.537 37.855 176.789 176.789 0 0 0 75.838-55.113 111.571 111.571 0 0 1 -45.518-20.813z" fill="#e2b65d"/><path d="m433.36 79.68-58.8 104.32h-85.12l-58.8-104.32 31.33-47.68h140.06z" fill="#ffd9dc"/><path d="m402.03 32h-50.03l33.33 47.68h48.03z" fill="#ffccd2"/><path d="m384.95 79.68-47.82 104.32h37.43l58.8-104.32z" fill="#ffa4b1"/><path d="m230.64 79.68 58.8 104.32h37.43l-47.82-104.32z" fill="#ffd9dc"/><path d="m279.05 79.68 47.82 104.32h10.26l47.82-104.32z" fill="#ffccd2"/><path d="m352 32h-40l-33.33 46.85h106.66z" fill="#fff2f4"/><path d="m230.64 79.68 4.69 8.32h193.34l4.69-8.32-5.046-7.68h-192.628z" fill="#ffa4b1"/><path d="m336 160c-97.047 0-176 78.953-176 176s78.953 176 176 176 176-78.953 176-176-78.953-176-176-176zm0 304a128 128 0 1 1 128-128 128.145 128.145 0 0 1 -128 128z" fill="#efc465"/><g fill="#f7eacd"><path d="m64 48a8 8 0 0 1 -8-8v-32a8 8 0 0 1 16 0v32a8 8 0 0 1 -8 8z"/><path d="m64 112a8 8 0 0 1 -8-8v-32a8 8 0 0 1 16 0v32a8 8 0 0 1 -8 8z"/><path d="m40 64h-32a8 8 0 0 1 0-16h32a8 8 0 0 1 0 16z"/><path d="m120 64h-32a8 8 0 0 1 0-16h32a8 8 0 0 1 0 16z"/><path d="m472 136a8 8 0 0 1 -8-8v-8a8 8 0 0 1 16 0v8a8 8 0 0 1 -8 8z"/><path d="m472 192a8 8 0 0 1 -8-8v-8a8 8 0 0 1 16 0v8a8 8 0 0 1 -8 8z"/><path d="m448 160h-8a8 8 0 0 1 0-16h8a8 8 0 0 1 0 16z"/><path d="m504 160h-8a8 8 0 0 1 0-16h8a8 8 0 0 1 0 16z"/><path d="m184 88a8 8 0 0 1 -8-8v-8a8 8 0 0 1 16 0v8a8 8 0 0 1 -8 8z"/><path d="m184 144a8 8 0 0 1 -8-8v-8a8 8 0 0 1 16 0v8a8 8 0 0 1 -8 8z"/><path d="m160 112h-8a8 8 0 0 1 0-16h8a8 8 0 0 1 0 16z"/><path d="m216 112h-8a8 8 0 0 1 0-16h8a8 8 0 0 1 0 16z"/></g><path d="m244.018 247.084a127.758 127.758 0 0 1 75.857-38.071 193.393 193.393 0 0 0 -45.537-37.855 176.789 176.789 0 0 0 -75.838 55.113 111.571 111.571 0 0 1 45.518 20.813z" fill="#e2b65d"/><path d="m48 336a128 128 0 0 1 256 0h48c0-97.047-78.953-176-176-176s-176 78.953-176 176z" fill="#efc465"/><path d="m492.342 255.234a301.814 301.814 0 0 1 -28.627 89.206 128.247 128.247 0 0 1 -104.479 117.44 302.482 302.482 0 0 1 -85.105 38.883 175.127 175.127 0 0 0 61.869 11.237c97.047 0 176-78.953 176-176a174.923 174.923 0 0 0 -19.658-80.766z" fill="#e2b65d"/><circle cx="268" cy="52" fill="#fff2f4" r="12"/><circle cx="108" cy="196" fill="#f7eacd" r="12"/><circle cx="148" cy="184" fill="#f7eacd" r="16"/><circle cx="316" cy="108" fill="#fff2f4" r="12"/></svg>