<svg id="Layer_1" enable-background="new 0 0 511.827 511.827" height="512" viewBox="0 0 511.827 511.827" width="512" xmlns="http://www.w3.org/2000/svg"><g><path d="m296.125 428.701v72.077c0 6.102-4.947 11.049-11.049 11.049h-58.368c-6.102 0-11.049-4.947-11.049-11.049v-72.077l40.232-94.189z" fill="#b34f03"/><path d="m255.914 511.827h29.163c6.102 0 11.049-4.947 11.049-11.049v-72.077l-40.212-94.138z" fill="#913f02"/><path d="m255.893 62.736c-98.494 0-178.338 79.844-178.338 178.338v4.675l174.428 63.467 182.248-63.467v-4.675c-.001-98.493-79.845-178.338-178.338-178.338z" fill="#eceae7"/><path d="m81.949 201.588h347.886c-2.344-10.371-5.585-20.402-9.65-30h-328.586c-4.064 9.599-7.305 19.629-9.65 30z" fill="#fff4f4"/><path d="m255.914 62.736v227.957h49.257l129.06-44.945v-4.675c-.001-98.486-79.834-178.326-178.317-178.337z" fill="#e7dfdd"/><path d="m255.914 201.588h173.922c-2.344-10.371-5.585-20.402-9.65-30h-164.272z" fill="#f4f1f1"/><path d="m33.429 245.706c-10.214 0-18.494 8.28-18.494 18.494v124.362c0 22.169 17.988 40.14 40.177 40.14 21.959 0 39.792-17.602 40.16-39.453.369 21.85 18.201 39.453 40.16 39.453 21.958 0 39.791-17.602 40.16-39.452.369 21.85 18.202 39.452 40.16 39.452 21.959 0 39.792-17.602 40.16-39.453.369 21.85 18.201 39.453 40.16 39.453 21.958 0 39.791-17.602 40.16-39.452.369 21.85 18.202 39.452 40.16 39.452 21.959 0 39.792-17.602 40.16-39.453.369 21.85 18.201 39.453 40.16 39.453 22.189 0 40.177-17.971 40.177-40.14v-124.362c0-10.214-8.28-18.494-18.494-18.494z" fill="#f6e4e7"/><path d="m287.148 36.32h-.002c18.786-22.52-11.78-48.899-31.263-29.491-21.235-20.169-49.397 8.768-31.264 29.491.311.325 19.095 19.959 27.396 28.636 2.11 2.205 5.625 2.206 7.734 0 8.223-8.594 26.69-27.895 27.399-28.636z" fill="#ff0059"/><path d="m255.922 6.791v59.819c1.393-.01 2.782-.561 3.827-1.653 8.222-8.594 26.689-27.895 27.398-28.636h-.002c18.774-22.505-11.737-48.862-31.223-29.53z" fill="#c1126b"/><path d="m478.398 245.706h-222.484v143.545c.37 21.849 18.202 39.45 40.16 39.45 21.958 0 39.791-17.602 40.16-39.452.369 21.85 18.202 39.452 40.16 39.452 21.959 0 39.792-17.602 40.16-39.453.369 21.85 18.201 39.453 40.16 39.453 22.189 0 40.177-17.971 40.177-40.14v-124.361c0-10.214-8.28-18.494-18.493-18.494z" fill="#ffdadf"/><path d="m14.936 320.645c.319.02.635.048.959.048h480.997v-30h-480.998c-.324 0-.64.028-.959.048v29.904z" fill="#ff0059"/><path d="m255.914 290.693h240.978v30h-240.978z" fill="#c1126b"/></g></svg>