<svg height="512" viewBox="0 0 64 64" width="512" xmlns="http://www.w3.org/2000/svg"><g id="Layer_16" data-name="Layer 16"><path d="m16 17v-2a8.58 8.58 0 0 0 6.12-2.54l1.17-1.17 1.42 1.42-1.17 1.17a10.61 10.61 0 0 1 -7.54 3.12z" fill="#c18e5c"/><path d="m23 4a6.84 6.84 0 0 1 4.83-2h6.17v6.17a6.84 6.84 0 0 1 -2 4.83 6.84 6.84 0 0 1 -4.83 2 5.24 5.24 0 0 1 -3.71-1.54l-.92-.92a5.24 5.24 0 0 1 -1.54-3.71 6.84 6.84 0 0 1 2-4.83z" fill="#78b75b"/><path d="m34 6h-4.74a26.5 26.5 0 0 1 -.43-3.95v-.05h-1a6.63 6.63 0 0 0 -1 .08 28.54 28.54 0 0 0 3 11.74.94.94 0 0 0 .12.18l.25.31a7.15 7.15 0 0 0 1.65-1.14l-.28-.34a27 27 0 0 1 -1.85-4.83h4.28z" fill="#96cc7f"/><path d="m31 17v-2a8.58 8.58 0 0 0 6.12-2.54l1.17-1.17 1.42 1.42-1.17 1.17a10.61 10.61 0 0 1 -7.54 3.12z" fill="#c18e5c"/><path d="m51.57 22a16.38 16.38 0 0 1 4.43 11c0 10.49-10.75 19-24 19s-24-8.51-24-19a16.38 16.38 0 0 1 4.43-11z" fill="#a0a8b2"/><path d="m32 52a28.47 28.47 0 0 1 -13.44-3.26l3.53 4a8.05 8.05 0 0 1 1.91 5.26h16a8 8 0 0 1 2-5.27l3.55-4a28.32 28.32 0 0 1 -13.55 3.27z" fill="#b3b9c1"/><path d="m54 22h-44l4-6h36z" fill="#f2c351"/><path d="m20 62 4-4h16l4 4z" fill="#a0a8b2"/><path d="m38 4a6.84 6.84 0 0 1 4.83-2h6.17v6.17a6.84 6.84 0 0 1 -2 4.83 6.84 6.84 0 0 1 -4.83 2 5.24 5.24 0 0 1 -3.71-1.54l-.92-.92a5.24 5.24 0 0 1 -1.54-3.71 6.84 6.84 0 0 1 2-4.83z" fill="#78b75b"/><path d="m49 6h-4.74a26.5 26.5 0 0 1 -.43-3.95v-.05h-1a6.63 6.63 0 0 0 -1 .08 28.54 28.54 0 0 0 3 11.74.94.94 0 0 0 .12.18l.25.31a7.15 7.15 0 0 0 1.65-1.14l-.28-.34a27 27 0 0 1 -1.85-4.83h4.28z" fill="#96cc7f"/><path d="m49.92 22h-37.49a16.38 16.38 0 0 0 -4.43 11 16.35 16.35 0 0 0 4.35 10.9c1 .06 2.09.1 3.15.1 18.31 0 33.29-9.72 34.42-22z" fill="#b3b9c1"/></g></svg>