<svg id="Capa_1" enable-background="new 0 0 512 512" height="512" viewBox="0 0 512 512" width="512" xmlns="http://www.w3.org/2000/svg"><g><g><g fill="#c0d6f2"><path d="m429.84 84.898h18.948c3.268 0 5.666 3.071 4.874 6.242l-14.348 57.391-14.348-57.391c-.792-3.171 1.606-6.242 4.874-6.242z"/><path d="m477.61 96.836 13.398 13.398c2.311 2.311 1.835 6.178-.968 7.86l-50.727 30.436 30.436-50.727c1.682-2.802 5.55-3.278 7.861-.967z"/></g><path d="m509.613 384.464-65.751-199.812c-7.691-23.371-22.684-43.229-42.477-56.258-32.574-21.442-73.709-21.594-106.421-.394l-.617.4c-20.085 13.017-35.309 33.036-43.08 56.651l-65.619 199.412c-9.536 28.978 10.681 59.294 39.54 59.294h122.315 122.57c28.859.001 49.075-30.316 39.54-59.293z" fill="#c0d6f2"/><path d="m509.613 384.464-65.751-199.812c-7.691-23.371-22.684-43.229-42.477-56.258-21.28-14.008-46.213-18.924-70.066-14.741 12.905 2.256 25.491 7.161 37.006 14.741h.001c19.793 13.029 34.786 32.887 42.477 56.258l65.751 199.812c9.535 28.978-10.681 59.294-39.54 59.294h33.06c28.857 0 49.074-30.317 39.539-59.294z" fill="#b2caec"/><path d="m410.395 333.99h-26.21v-86.671h-72.036v86.671c-9.765 0-16.13 0-26.21 0-22.173 0-40.147 17.975-40.147 40.147v91.39h204.75c0-9.077 0-82.311 0-91.39 0-22.173-17.974-40.147-40.147-40.147z" fill="#ffcebf"/><g><path d="m410.394 333.99h-26.209v-86.67h-72.035v9.016h54.003v79.249c0 4.099 3.323 7.422 7.422 7.422h18.788c22.173 0 40.147 17.974 40.147 40.147v82.374h18.033v-91.39c-.001-22.174-17.976-40.148-40.149-40.148z" fill="#ffb09e"/></g><path d="m312.149 313.272c10.934 4.912 23.069 7.67 35.863 7.67h.001c12.915 0 25.159-2.809 36.172-7.809v-65.815h-72.035v65.954z" fill="#ffa78f"/><path d="m434.109 273.876c-28.151 0-50.972-22.821-50.972-50.972v-38.06c0-28.151 22.821-50.972 50.972-50.972 28.151 0 50.972 22.821 50.972 50.972v38.06c0 28.151-22.821 50.972-50.972 50.972z" fill="#ac5e2e"/><path d="m434.109 133.871c-5.231 0-10.276.791-15.027 2.255 20.816 6.413 35.945 25.797 35.945 48.718v38.06c0 22.92-15.129 42.304-35.945 48.718 4.751 1.464 9.797 2.255 15.027 2.255 28.151 0 50.972-22.822 50.972-50.972v-38.06c0-28.153-22.821-50.974-50.972-50.974z" fill="#9e5528"/><path d="m343.418 73.197h-1.005c-48.502 0-87.821 39.319-87.821 87.821v35.001c0 48.502 39.319 87.821 87.821 87.821h1.005z" fill="#d77f4a"/><g><path d="m347.903 413.441h-.819-2.186-.819-73.454l5.944 52.086h67.322 1.195 1.81 1.195 67.322l5.945-52.086z" fill="#e2e2e2"/><path d="m395.023 413.441-5.945 52.086h29.341l5.944-52.086z" fill="#cecece"/></g><path d="m305.296 236.562h-44.158c-16.321 0-29.552-13.231-29.552-29.552 0-16.321 13.231-29.552 29.552-29.552h44.158z" fill="#ffb09e"/><path d="m434.929 236.562h-44.158v-59.104h44.158c16.321 0 29.552 13.231 29.552 29.552 0 16.321-13.231 29.552-29.552 29.552z" fill="#ffa78f"/><path d="m346.51 105.14c-47.223.795-85.262 38.842-85.262 85.69v32.362c0 46.848 38.04 84.895 85.262 85.69 47.223-.795 85.262-38.842 85.262-85.69v-32.362c0-46.848-38.04-84.895-85.262-85.69z" fill="#ffcebf"/><path d="m348.013 105.102c-4.082 0-8.091.3-12.022.838 42.226 5.786 74.743 41.577 74.743 84.89v32.362c0 43.313-32.517 79.104-74.743 84.89 3.931.539 7.941.838 12.022.838h.001c47.919 0 86.765-38.382 86.765-85.728v-32.362c-.002-47.346-38.847-85.728-86.766-85.728z" fill="#ffb09e"/><path d="m434.963 177.428h-116.945c-28.783 0-52.116-23.333-52.116-52.116 0-28.783 23.333-52.116 52.116-52.116h57.082c33.062 0 59.863 26.802 59.863 59.863z" fill="#d77f4a"/><path d="m375.1 73.197h-30.055c33.062 0 59.864 26.802 59.864 59.863v44.368h30.055v-44.368c-.001-33.062-26.803-59.863-59.864-59.863z" fill="#c86d36"/><g><path d="m348.034 274.847c-14.564 0-26.413-11.849-26.413-26.413 0-4.392 3.56-7.952 7.952-7.952s7.952 3.56 7.952 7.952c0 5.795 4.714 10.509 10.509 10.509s10.509-4.714 10.509-10.509c0-4.392 3.56-7.952 7.952-7.952s7.952 3.56 7.952 7.952c0 14.563-11.849 26.413-26.413 26.413z" fill="#ffa799"/></g><g><path d="m390.465 229.213c-4.392 0-7.952-3.56-7.952-7.952v-16.008c0-4.392 3.56-7.952 7.952-7.952h6.882c4.392 0 7.952 3.56 7.952 7.952 0 4.029-2.996 7.359-6.882 7.881v8.127c0 4.392-3.56 7.952-7.952 7.952z" fill="#5a5a5a"/></g><g><path d="m305.603 229.213c-4.392 0-7.952-3.56-7.952-7.952v-8.127c-3.886-.522-6.882-3.852-6.882-7.881 0-4.392 3.56-7.952 7.952-7.952h6.882c4.392 0 7.952 3.56 7.952 7.952v16.008c-.001 4.392-3.56 7.952-7.952 7.952z" fill="#5a5a5a"/></g><g><path d="m409.22 245.203h-12.663c-3.792 0-6.866-3.073-6.866-6.866s3.073-6.866 6.866-6.866h12.663c3.792 0 6.866 3.073 6.866 6.866s-3.074 6.866-6.866 6.866z" fill="#fe8f83"/></g><g><path d="m298.431 245.203h-12.663c-3.792 0-6.866-3.073-6.866-6.866s3.073-6.866 6.866-6.866h12.663c3.792 0 6.866 3.073 6.866 6.866s-3.074 6.866-6.866 6.866z" fill="#fe8f83"/></g><path d="m241.415 379.838h213.504c4.624 0 8.373 3.749 8.373 8.373v28.333c0 4.624-3.749 8.373-8.373 8.373h-213.504c-4.624 0-8.373-3.749-8.373-8.373v-28.334c0-4.624 3.749-8.372 8.373-8.372z" fill="#ebebeb"/><path d="m454.919 379.838h-33.06c4.624 0 8.373 3.749 8.373 8.373v28.333c0 4.624-3.749 8.372-8.373 8.372h33.06c4.624 0 8.373-3.749 8.373-8.372v-28.333c0-4.625-3.749-8.373-8.373-8.373z" fill="#e2e2e2"/></g><g><path d="m78.51 229.305h76.396v103.825h-76.396z" fill="#ffb09e"/><path d="m78.51 302.614c11.367 5.521 24.127 8.623 37.613 8.623h1.237c13.459 0 26.195-3.088 37.545-8.588v-73.344h-76.395z" fill="#ffa78f"/><path d="m214.459 200.694 7.798-88.445c1.85-20.99-14.69-39.052-35.761-39.052h-68.225v127.497z" fill="#87523e"/><path d="m74.343 223.865h-44.415c-16.269 0-29.457-13.188-29.457-29.457 0-16.269 13.188-29.457 29.457-29.457h44.415z" fill="#ffb09e"/><path d="m203.489 223.865h-44.415v-58.915h44.415c16.269 0 29.457 13.188 29.457 29.457 0 16.269-13.188 29.458-29.457 29.458z" fill="#ffa78f"/><g fill="#acacac"><path d="m38.959 321.24c-21.516 0-38.959 17.443-38.959 38.959v105.328h116.995l-51.994-144.287c-14.482 0-24.62 0-26.042 0z"/><path d="m194.724 321.24c-1.412 0-11.435 0-25.776 0l-51.953 144.287h116.688c0-2.716 0-101.229 0-105.328 0-21.516-17.443-38.959-38.959-38.959z"/></g><g><path d="m168.948 321.24-15.001 41.655-36.962-29.757-36.962 29.757-15.002-41.655h-.02l51.994 144.287 51.973-144.287z" fill="#bfbfbf"/></g><path d="" style="fill:none;stroke:#000;stroke-width:15;stroke-linecap:round;stroke-linejoin:round;stroke-miterlimit:10"/><path d="m153.947 362.895-36.972-29.764 38.464-25.618 13.509 13.727z" fill="#e2e2e2"/><path d="m80.022 362.895 36.973-29.764-38.465-25.618-13.509 13.727z" fill="#e2e2e2"/><path d="m116.995 333.131-21.055 16.95 5.05 25.994h16.005 16.004l5.05-25.994z" fill="#5a5a5a"/><path d="m132.999 376.075h-16.004-16.005l-5.05 31.023 21.055 58.429 21.054-58.429z" fill="#5a5a5a"/><path d="m155.439 307.512-18.155 12.092 1.61 1.636-8.246 22.898 23.299 18.757 15.001-41.655z" fill="#b2caec"/><path d="m115.239 92.646c-47.204.476-85.326 38.872-85.326 86.187v31.167c0 47.316 38.122 85.711 85.326 86.188 47.204-.477 85.326-38.872 85.326-86.188v-31.166c.001-47.317-38.122-85.712-85.326-86.188z" fill="#ffcebf"/><g><path d="m116.708 262.201c-14.549 0-26.384-11.837-26.384-26.385 0-4.392 3.56-7.952 7.952-7.952s7.952 3.56 7.952 7.952c0 5.78 4.702 10.482 10.48 10.482 5.78 0 10.481-4.702 10.481-10.482 0-4.392 3.56-7.952 7.952-7.952s7.952 3.56 7.952 7.952c0 14.548-11.837 26.385-26.385 26.385z" fill="#ffa799"/></g><g><g><path d="m74.343 216.638c-4.392 0-7.952-3.56-7.952-7.952v-15.984c0-4.392 3.56-7.952 7.952-7.952s7.952 3.56 7.952 7.952v15.984c0 4.392-3.56 7.952-7.952 7.952z" fill="#5a5a5a"/></g><g><path d="m159.074 216.638c-4.392 0-7.952-3.56-7.952-7.952v-15.984c0-4.392 3.56-7.952 7.952-7.952s7.952 3.56 7.952 7.952v15.984c0 4.392-3.56 7.952-7.952 7.952z" fill="#5a5a5a"/></g></g><g><path d="m67.911 238.338h-12.663c-3.792 0-6.866-3.073-6.866-6.866 0-3.792 3.073-6.866 6.866-6.866h12.663c3.792 0 6.866 3.073 6.866 6.866 0 3.792-3.074 6.866-6.866 6.866z" fill="#fe8f83"/></g><path d="m117.361 92.623h-1.237c-3.869 0-7.67.281-11.404.774 42.219 5.583 74.807 41.692 74.807 85.436v31.167c0 43.744-32.588 79.853-74.807 85.436 3.734.493 7.535.774 11.404.774h1.237c47.612 0 86.21-38.598 86.21-86.21v-31.166c0-47.613-38.598-86.211-86.21-86.211z" fill="#ffb09e"/><path d="m19.931 164.95h118.739c32.717 0 59.239-26.522 59.239-59.239v-15.946c0-23.909-19.382-43.292-43.292-43.292h-76.162c-32.322 0-58.524 26.202-58.524 58.524z" fill="#aa6a51"/><path d="m154.616 46.473h-30.055c23.91 0 43.292 19.382 43.292 43.292v15.947c0 32.717-26.522 59.239-59.239 59.239h30.054c32.717 0 59.239-26.522 59.239-59.239v-15.947c.001-23.91-19.381-43.292-43.291-43.292z" fill="#935b44"/><g><path d="m178.701 238.338h-12.663c-3.792 0-6.866-3.073-6.866-6.866 0-3.792 3.073-6.866 6.866-6.866h12.663c3.792 0 6.866 3.073 6.866 6.866 0 3.792-3.074 6.866-6.866 6.866z" fill="#fe8f83"/></g><path d="m38.959 321.24c-21.516 0-38.959 17.443-38.959 38.959v105.328h116.995l-51.994-144.287c-14.482 0-24.62 0-26.042 0z" fill="#acacac"/><path d="m191.719 321.24c-4.209 0-12.337 0-22.771 0l-51.953 144.287h113.683c0-2.716 0-101.229 0-105.328-.001-21.516-17.443-38.959-38.959-38.959z" fill="#acacac"/><path d="m194.724 321.24c-1.412 0-11.435 0-25.776 0l-.082.228c19.542 2.094 34.762 18.633 34.762 38.731v105.328h30.055c0-2.716 0-101.229 0-105.328 0-21.516-17.443-38.959-38.959-38.959z" fill="#9c9c9c"/><path d="m65.001 321.24h-26.042c-3.574 0-7.031.491-10.319 1.392l26.768 68.622c.794 2.035 2.755 3.375 4.939 3.375h11.869c1.033 0 1.456 1.327.613 1.925l-7.924 5.619c-2.233 1.583-2.893 4.606-1.524 6.976l32.559 56.378h21.055z" fill="#838383"/><path d="m161.774 394.63h11.869c2.184 0 4.145-1.34 4.939-3.375l26.737-68.544c-3.37-.951-6.92-1.47-10.594-1.47h-25.756l-51.974 144.287h21.055l32.559-56.378c1.369-2.37.708-5.393-1.524-6.976l-7.924-5.619c-.844-.598-.421-1.925.613-1.925z" fill="#838383"/><path d="m198.338 340.607 6.981-17.896c-.859-.311-3.745-1.47-13.098-1.47-11.824 0-23.253 0-23.253 0l-.083.231c12.586 1.354 23.369 8.705 29.453 19.135z" fill="#5a5a5a"/><g><path d="m209.046 443.262h-36.755c-4.268 0-7.726-3.459-7.726-7.726 0-4.268 3.459-7.726 7.726-7.726h36.755c4.268 0 7.726 3.459 7.726 7.726s-3.459 7.726-7.726 7.726z" fill="#bfbfbf"/></g><path d="m216.772 435.535c0-4.268-3.459-7.726-7.726-7.726h-5.418v15.453h5.418c4.267 0 7.726-3.459 7.726-7.727z" fill="#acacac"/></g></g></svg>