<svg id="Layer_1" enable-background="new 0 0 512 512" height="512" viewBox="0 0 512 512" width="512" xmlns="http://www.w3.org/2000/svg"><g><g><path d="m436 52h-60.177l-33.216-47.713c-1.869-2.686-4.934-4.287-8.207-4.287h-156.8c-3.272 0-6.337 1.601-8.207 4.287l-33.216 47.713h-60.177c-16.542 0-30 13.458-30 30v400c0 16.542 13.458 30 30 30h360c16.542 0 30-13.458 30-30v-400c0-16.542-13.458-30-30-30zm10 264.199h-80v-20h80zm-105.191-279.491 19.056 27.374-31.802 139.024-57.665-52.343c36.592-38.423 61.534-79.083 70.411-114.055zm-69.051 162.397h-31.517l-6.757-13.964 22.516-20.436 22.515 20.437zm-70.888-139.104h110.275c-11.634 24.515-30.53 51.055-55.145 76.884-24.584-25.801-43.487-52.355-55.13-76.884zm122.874-40.001c-.806 6.367-2.35 13.059-4.583 20.001h-126.313c-2.236-6.943-3.783-13.636-4.591-20.001zm-152.616 16.798c3.837 15.311 10.79 31.689 20.795 48.949 12.508 21.578 29.575 43.895 49.68 65.016l-57.667 52.344-31.801-139.025zm-105.128 445.202v-400c0-5.514 4.486-10 10-10h57.43l34.823 152.23c.792 3.463 3.362 6.246 6.75 7.31 3.39 1.067 7.088.252 9.719-2.135l33.326-30.25 5.525 11.419-9.143 53.192c-.936 5.443 2.718 10.614 8.162 11.549.573.099 1.143.146 1.706.146 4.779 0 9.007-3.438 9.844-8.308l8.258-48.047h27.202l32.25 187.63-45.852 40.758-45.851-40.758 8.745-50.875c.936-5.443-2.718-10.614-8.162-11.549-5.441-.936-10.614 2.719-11.549 8.162l-9.686 56.352c-.585 3.405.629 6.872 3.211 9.168l53.292 47.37v26.636h-170c-5.515 0-10-4.486-10-10zm370 10h-170v-26.635l53.292-47.372c2.583-2.296 3.797-5.763 3.211-9.168l-34.076-198.251 5.526-11.419 33.326 30.25c1.867 1.694 4.271 2.596 6.722 2.595 1.002 0 2.013-.151 2.997-.46 3.389-1.064 5.958-3.847 6.75-7.31l34.823-152.23h57.429c5.514 0 10 4.486 10 10v194.2h-90c-5.523 0-10 4.477-10 10v40c0 5.523 4.477 10 10 10h90v145.8c0 5.514-4.486 10-10 10z"/><path d="m216.662 319.812c5.523 0 10-4.477 10-10s-4.477-10-10-10h-.007c-5.523 0-9.996 4.477-9.996 10s4.48 10 10.003 10z"/></g></g></svg>